PathFileType	4	(X/Y/Z)	./resultDataOpenSim/trcMotMarkerGrf/sub09/qtm-04-05.trc
DataRate	CameraRate	NumFrames	NumMarkers	Units	OrigDataRate	OrigDataStartFrame	OrigNumFrames
250.000000	250.000000	12	24	m	250.000000	1	501
Frame#	Time	L.Toe.Tip			R.Toe.Tip			L.Ankle.Lat			R.Ankle.Lat			L.Ankle.Med			R.Ankle.Med			L.Heel			R.Heel			L.Knee.Lat			R.Knee.Lat			L.Knee.Med			R.Knee.Med			L.Thigh.Upper			R.Thigh.Upper			L.ASIS			R.ASIS			V.Sacral			L.Acromium			R.Acromium			C7			L.Elbow			R.Elbow			L.Wrist.Lat			R.Wrist.Lat
		X1	Y1	Z1	X2	Y2	Z2	X3	Y3	Z3	X4	Y4	Z4	X5	Y5	Z5	X6	Y6	Z6	X7	Y7	Z7	X8	Y8	Z8	X9	Y9	Z9	X10	Y10	Z10	X11	Y11	Z11	X12	Y12	Z12	X13	Y13	Z13	X14	Y14	Z14	X15	Y15	Z15	X16	Y16	Z16	X17	Y17	Z17	X18	Y18	Z18	X19	Y19	Z19	X20	Y20	Z20	X21	Y21	Z21	X22	Y22	Z22	X23	Y23	Z23	X24	Y24	Z24

1	0	-1.5099362	0.036962636	-0.046315248	-0.9998924	0.073947186	0.080973909	-1.6590255	0.076390305	-0.078219302	-1.1484645	0.067647706	0.10664678	-1.6368229	0.090001118	0.016676254	-1.1371237	0.10607885	0.016006761	NaN	NaN	NaN	-1.2034744	0.032990643	0.04923169	-1.5101594	0.4672758	-0.1361125	-1.1772732	0.52477727	0.15346232	-1.5090645	0.46703961	-0.010128006	-1.1786644	0.50592359	0.026144753	-1.4144597	0.87850204	-0.17943839	-1.3850974	0.87482397	0.1900466	-1.3098201	0.95087372	-0.12597369	-1.3027466	0.95623168	0.1138643	-1.4684946	1.0184102	0.0045261514	-1.2720339	1.4066547	-0.16377272	-1.3034617	1.4121617	0.16292731	-1.3494598	1.464053	-0.0042567525	-1.3644114	1.0395418	-0.24123107	-1.4772064	1.0922975	0.23506047	-1.1067496	0.95718277	-0.19034024	-1.3999461	0.83519126	0.26764881
2	0.004	-1.5098694	0.036852124	-0.046290655	-0.98198988	0.076759556	0.082001149	-1.6588609	0.076996677	-0.077880942	-1.130805	0.066937407	0.10675061	-1.6356464	0.090899186	0.016643358	-1.1197406	0.10598457	0.016348522	NaN	NaN	NaN	-1.1856812	0.032268505	0.047827405	-1.507872	0.46719566	-0.13618975	-1.171523	0.52340216	0.15371269	-1.5063817	0.4669849	-0.010178917	-1.1719051	0.50458502	0.026516777	-1.4087144	0.87728955	-0.179355	-1.3794721	0.87323085	0.19032325	-1.3037788	0.94951373	-0.12583245	-1.2968489	0.95477714	0.11419941	-1.4624643	1.0168894	0.0044743058	-1.2661808	1.4054637	-0.16339929	-1.2979334	1.4106207	0.16334511	-1.3439031	1.4626748	-0.003917786	-1.3572335	1.0378812	-0.2412929	-1.4710115	1.0912325	0.23527539	-1.0989275	0.95817671	-0.18938805	-1.3968658	0.83364166	0.26948466
3	0.008	-1.5098054	0.03676325	-0.046267038	-0.96410715	0.079762727	0.083018329	-1.6586905	0.077631814	-0.077566048	-1.1131656	0.066434331	0.10691222	-1.6345888	0.091742887	0.016616121	-1.1025219	0.10597896	0.016698132	NaN	NaN	NaN	-1.167118	0.03117735	0.047696962	-1.5055257	0.46710333	-0.13623831	-1.1656942	0.52193649	0.15401389	-1.5038199	0.46692924	-0.010182179	-1.1651412	0.50318398	0.026859	-1.4029364	0.87607654	-0.17940231	-1.3737029	0.87162094	0.1906162	-1.2976772	0.94814472	-0.12567095	-1.2908731	0.95326677	0.11453022	-1.4564172	1.0153317	0.0044014188	-1.2602929	1.4042453	-0.16300241	-1.2922959	1.4090928	0.16376367	-1.3383128	1.4612893	-0.0036177884	-1.350049	1.0362219	-0.24132259	-1.4649752	1.0901527	0.23541692	-1.0911414	0.95910951	-0.18845959	-1.3936918	0.83212826	0.27127778
4	0.012	-1.5097432	0.036699534	-0.046246541	-0.94628759	0.083026907	0.083933011	-1.6585093	0.078338299	-0.077288949	-1.0955975	0.066238851	0.10716316	-1.6337066	0.092515571	0.016606046	-1.0855709	0.10613063	0.017055125	NaN	NaN	NaN	-1.1480788	0.029867589	0.0485081	-1.5030667	0.46699849	-0.13625468	-1.1598546	0.52034587	0.1543521	-1.5013883	0.46686661	-0.010119594	-1.1583946	0.50169777	0.027159005	-1.397101	0.87485539	-0.17951389	-1.3677652	0.86997676	0.19091678	-1.2914596	0.94678232	-0.12547243	-1.2847676	0.95169829	0.11485636	-1.4503036	1.0137317	0.0043927227	-1.2543477	1.4029833	-0.16257791	-1.2865183	1.4075701	0.16418513	-1.3326063	1.4598978	-0.0033217337	-1.3428461	1.034563	-0.24129587	-1.4590257	1.089042	0.23549965	-1.0833907	0.95994779	-0.18756626	-1.3903535	0.83067222	0.2730147
5	0.016	-1.5096804	0.036650474	-0.046233266	-0.92871199	0.086489415	0.084621973	-1.6583099	0.079136995	-0.077053172	-1.0782409	0.0663287	0.10749777	-1.6329973	0.093233049	0.016625795	-1.0689418	0.10647265	0.017419109	NaN	NaN	NaN	-1.1292965	0.028689756	0.049315101	-1.5004658	0.46689121	-0.13626142	-1.1540686	0.51866482	0.1546865	-1.4989537	0.46680184	-0.01001051	-1.1517088	0.50014297	0.027408097	-1.3912122	0.87362355	-0.1794902	-1.3617118	0.86829016	0.19120511	-1.2851075	0.94545248	-0.12522768	-1.278523	0.95010887	0.11517256	-1.4441002	1.0121076	0.0045193348	-1.2483501	1.4016814	-0.16214015	-1.2806476	1.4060438	0.16461145	-1.3267528	1.4585105	-0.0029949843	-1.3356293	1.0329074	-0.24120078	-1.4529522	1.0878533	0.23555606	-1.0756586	0.96069219	-0.18670524	-1.3868298	0.82927578	0.27469457
6	0.02	-1.5096166	0.036604706	-0.04623183	-0.9116281	0.090087667	0.085108141	-1.6580813	0.079996177	-0.07685879	-1.0612654	0.066613242	0.10786766	-1.6324042	0.093924642	0.016670827	-1.052644	0.10701204	0.01779313	NaN	NaN	NaN	-1.1110532	0.027765087	0.049827983	-1.4977169	0.46679448	-0.13628345	-1.1482415	0.51694351	0.15500498	-1.4963622	0.46674718	-0.0098891316	-1.145094	0.4985463	0.027595176	-1.3852843	0.87239034	-0.17924269	-1.3555608	0.866563	0.1914746	-1.278649	0.94415109	-0.12494915	-1.2721492	0.94852595	0.11546725	-1.4378223	1.0104706	0.0047381142	-1.2423019	1.4003537	-0.1617017	-1.2747369	1.4045139	0.16504228	-1.320803	1.4571193	-0.0026779109	-1.3284091	1.0312621	-0.24105396	-1.4466456	1.0865421	0.23558569	-1.0679331	0.96135694	-0.18586815	-1.3831703	0.82791833	0.27630963
7	0.024	-1.5095526	0.036556233	-0.046243182	-0.89520148	0.09383406	0.08556393	-1.6578145	0.080875714	-0.076710544	-1.0447711	0.067013661	0.10821549	-1.6318186	0.094621786	0.01671404	-1.0367043	0.10773279	0.018178955	NaN	NaN	NaN	-1.0932667	0.027005126	0.050273807	-1.4948233	0.46671151	-0.13632742	-1.142248	0.51520477	0.1553153	-1.493559	0.46670336	-0.0097769924	-1.1385234	0.49693213	0.027724173	-1.379332	0.87117712	-0.17886292	-1.3492862	0.86480476	0.191735	-1.2721758	0.94283204	-0.12468674	-1.2656837	0.94695307	0.11573191	-1.4314973	1.0088229	0.0049732151	-1.2361922	1.3990125	-0.16126502	-1.2687994	1.4029801	0.16547462	-1.3148245	1.4556975	-0.0024471179	-1.321198	1.0296344	-0.24089122	-1.4401972	1.0851387	0.23560806	-1.0602305	0.96194362	-0.18505336	-1.3794541	0.82656845	0.27785159
8	0.028	-1.5094888	0.036504086	-0.046263767	-0.87943605	0.097747765	0.086103163	-1.6575033	0.081780269	-0.076614904	-1.0287109	0.067522307	0.10853587	-1.6311306	0.095350715	0.016722354	-1.0211827	0.1085891	0.01857612	NaN	NaN	NaN	-1.0758292	0.026291754	0.050893077	-1.4917724	0.46663012	-0.13638887	-1.136079	0.51345289	0.15560703	-1.4905452	0.46665879	-0.0096806408	-1.1319617	0.49531805	0.027820016	-1.373368	0.86999987	-0.17847623	-1.3428637	0.86302791	0.19200102	-1.2658033	0.9414375	-0.12450669	-1.2591657	0.94538597	0.11596868	-1.4251402	1.0071693	0.0052070248	-1.2300127	1.3976635	-0.16083081	-1.2628085	1.4014379	0.16590866	-1.3088433	1.4542386	-0.0023139875	-1.3140011	1.0280247	-0.24072513	-1.4337707	1.0837289	0.23568596	-1.0525709	0.96243958	-0.18426197	-1.3756756	0.82520836	0.27932821
9	0.032	-1.5094237	0.036450258	-0.046289548	-0.86424234	0.10178689	0.086697625	-1.6571438	0.082727798	-0.076574568	-1.0129213	0.068197579	0.10888658	-1.6302965	0.09612617	0.016672109	-1.0061403	0.10951891	0.018975548	NaN	NaN	NaN	-1.0587564	0.025601684	0.051714745	-1.4885332	0.46653084	-0.13646269	-1.1297856	0.51170622	0.15585289	-1.4873163	0.46659765	-0.0096039615	-1.1253857	0.49371038	0.027908808	-1.3673951	0.86884693	-0.17813236	-1.3362959	0.86124255	0.19227881	-1.2595635	0.93995042	-0.12443418	-1.2525741	0.94382975	0.11619001	-1.418747	1.0055176	0.005455863	-1.2237729	1.396304	-0.16040143	-1.2567269	1.3998852	0.16634772	-1.3028161	1.4527758	-0.0021326865	-1.3068149	1.0264274	-0.2405337	-1.4274383	1.0823793	0.23588322	-1.0449404	0.96282973	-0.18348584	-1.371747	0.82384543	0.28075665
10	0.036	-1.5093553	0.036398751	-0.046319241	-0.8495579	0.10586543	0.08726977	-1.6567324	0.083714217	-0.076591642	-0.9971972	0.069132492	0.10934896	-1.6293496	0.09695009	0.016553716	-0.99160872	0.11047065	0.019356151	NaN	NaN	NaN	-1.0421664	0.025018345	0.052585192	-1.4850884	0.4663928	-0.13654078	-1.123349	0.51001622	0.15605289	-1.4838713	0.46650384	-0.0095490314	-1.1187966	0.49210681	0.027997026	-1.3613986	0.86768706	-0.17780957	-1.3295787	0.85945871	0.19256428	-1.2533737	0.93841115	-0.12443352	-1.2458501	0.94229371	0.11640803	-1.4123073	1.0038722	0.0057244045	-1.2174933	1.3949292	-0.15997613	-1.2505395	1.3983263	0.16679186	-1.2966319	1.4513625	-0.0015975966	-1.2996388	1.0248443	-0.24029799	-1.4211698	1.0811017	0.23620917	-1.0372956	0.9631094	-0.18270957	-1.3676483	0.82249725	0.28213968
11	0.04	-1.509283	0.036354834	-0.046355415	-0.83538018	0.10988391	0.087762657	-1.6562595	0.084741966	-0.076670516	-0.98141014	0.070398797	0.10995767	-1.6283537	0.097816871	0.016369027	-0.97758591	0.11141707	0.019695952	NaN	NaN	NaN	-1.0261607	0.024652387	0.053351713	-1.4814535	0.46620076	-0.13661971	-1.1167012	0.50844242	0.15624175	-1.4802151	0.46636298	-0.0095141442	-1.1122178	0.49050824	0.028073556	-1.3553535	0.86649607	-0.17746064	-1.322688	0.85768979	0.19285241	-1.2471398	0.93687124	-0.12445727	-1.2389829	0.94078154	0.11662432	-1.4058197	1.0022364	0.006015111	-1.2111821	1.3935435	-0.15954824	-1.2442711	1.3967719	0.16723848	-1.290188	1.4500336	-0.00043697708	-1.292485	1.0232935	-0.24004048	-1.4149455	1.0798662	0.23657479	-1.0296241	0.96329073	-0.18193474	-1.3634951	0.82116941	0.28346153
12	0.044	-1.5092057	0.036322354	-0.046404139	-0.82172352	0.11373167	0.08814908	-1.6557105	0.085827983	-0.076819532	-0.96573844	0.071918745	0.11061601	-1.6273554	0.098721368	0.016122046	-0.96403624	0.11235742	0.019985989	NaN	NaN	NaN	-1.010764	0.024562862	0.05394833	-1.4776531	0.46595549	-0.13670829	-1.1098388	0.50700759	0.1564503	-1.4763481	0.46616435	-0.0094987668	-1.1056674	0.4889291	0.028129784	-1.349247	0.86526733	-0.17705475	-1.3156247	0.85594803	0.19314097	-1.2408392	0.93535353	-0.12448905	-1.2320314	0.9392954	0.1168316	-1.3992878	1.000618	0.0063308492	-1.204823	1.392162	-0.15910424	-1.237963	1.3952358	0.16768753	-1.2835218	1.448771	0.0012488245	-1.2853712	1.0217977	-0.2398094	-1.4088268	1.0786297	0.23679902	-1.0220074	0.96339072	-0.1812019	-1.3594047	0.81985743	0.28470844
